<svg width="192" height="64" viewBox="0 0 192 64" fill="none" xmlns="http://www.w3.org/2000/svg">
<path d="M129.206 64C90.6731 64 88.8617 5.74985 129.206 9.68053C155.705 12.2623 164.288 27.7436 188.43 3.71934C189.722 2.43426 191.959 3.30225 191.856 5.12119C190.222 33.9462 174.393 64 129.206 64Z" fill="currentColor"/>
<path d="M62.7949 59C78.8698 59 87.1839 47.1129 87.3742 35.2858C87.4694 29.3671 85.4866 23.8389 81.6957 20.0428C78.0014 16.3435 72.1011 13.7975 63.2798 14.657C57.1193 15.2572 51.9657 16.6068 47.1634 18.0147C46.3958 18.2398 45.6233 18.4712 44.8474 18.7035C40.9294 19.877 36.9229 21.077 32.994 21.6286C28.0366 22.3247 22.9577 22.0537 17.3903 19.7771C13.7083 18.2714 9.95374 15.9459 5.96058 12.6595C7.6664 23.5699 11.7341 33.957 18.8861 42.0616C27.6065 51.9435 41.4089 59 62.7949 59Z" stroke="currentColor" stroke-width="10"/>
</svg>
