<svg width="192" height="192" viewBox="0 0 192 192" fill="none" xmlns="http://www.w3.org/2000/svg">
  <style>
    path { color: black }
    @media (prefers-color-scheme: dark) {
      path { color: white }
    }
  </style>
  <path d="M129.206 128C90.6731 128 88.8617 69.7499 129.206 73.6805C155.705 76.2623 164.288 91.7436 188.43 67.7193C189.722 66.4343 191.959 67.3023 191.856 69.1212C190.222 97.9462 174.393 128 129.206 128Z" fill="currentColor" />
  <path d="M62.7945 123C78.8693 123 87.1834 111.113 87.3737 99.2858C87.4689 93.3671 85.4861 87.8389 81.6952 84.0428C78.0009 80.3435 72.1006 77.7975 63.2793 78.657C57.1189 79.2572 51.9652 80.6068 47.1629 82.0147C46.3953 82.2398 45.6228 82.4712 44.8469 82.7035C40.9289 83.877 36.9224 85.077 32.9935 85.6286C28.0361 86.3247 22.9572 86.0537 17.3898 83.7771C13.7078 82.2714 9.95325 79.9459 5.96009 76.6595C7.66592 87.5699 11.7336 97.957 18.8856 106.062C27.606 115.943 41.4084 123 62.7945 123Z" stroke="currentColor" stroke-width="10"/>
</svg>
